{
DisplayStrings = (
fitjtl
);
customParameters = (
{
name = glyphOrder;
value = (
    ".notdef",
    A,
    B,
    C,
    D,
    E,
    F,
    G,
    H,
    I,
    J,
    K,
    L,
    M,
    N,
    O,
    P,
    Q,
    R,
    S,
    T,
    U,
    V,
    W,
    X,
    Y,
    Z,
    a,
    b,
    c,
    d,
    e,
    f,
    g,
    h,
    i,
    j,
    k,
    l,
    m,
    n,
    o,
    p,
    q,
    r,
    s,
    t,
    u,
    v,
    w,
    x,
    y,
    z,
    space
);
}
);
date = "2013-07-16 18:08:25 -0400";
familyName = "New Font";
fontMaster = (
{
ascender = 800;
capHeight = 700;
customParameters = (
{
name = TypoAscender;
value = 800;
},
{
name = TypoDescender;
value = "-200";
}
);
descender = "-200";
id = "54B20C80-6ADA-4299-B0EF-0FDE4C446783";
weightValue = 400;
widthValue = 5;
xHeight = 500;
}
);
glyphs = (
{
glyphname = .notdef;
layers = (
{
layerId = "54B20C80-6ADA-4299-B0EF-0FDE4C446783";
name = Regular;
paths = (
{
closed = 1;
nodes = (
"0 0 LINE",
"500 0 LINE",
"500 700 LINE",
"0 700 LINE"
);
},
{
closed = 1;
nodes = (
"250 395 LINE",
"80 650 LINE",
"420 650 LINE"
);
},
{
closed = 1;
nodes = (
"280 350 LINE",
"450 605 LINE",
"450 95 LINE"
);
},
{
closed = 1;
nodes = (
"80 50 LINE",
"250 305 LINE",
"420 50 LINE"
);
},
{
closed = 1;
nodes = (
"50 605 LINE",
"220 350 LINE",
"50 95 LINE"
);
}
);
width = 500;
}
);
},
{
glyphname = A;
layers = (
{
layerId = "54B20C80-6ADA-4299-B0EF-0FDE4C446783";
name = Regular;
paths = (
{
closed = 1;
nodes = (
"463 908 LINE SMOOTH",
"483 984 OFFCURVE",
"489 872 OFFCURVE",
"481 844 CURVE SMOOTH",
"406 596 OFFCURVE",
"322 439 OFFCURVE",
"267 312 CURVE SMOOTH",
"189 133 OFFCURVE",
"225 211 OFFCURVE",
"201 146 CURVE SMOOTH",
"174 73 OFFCURVE",
"115 -51 OFFCURVE",
"100 -90 CURVE SMOOTH",
"80 -143 OFFCURVE",
"-2 -147 OFFCURVE",
"17 -93 CURVE SMOOTH",
"39 -30 OFFCURVE",
"83 12 OFFCURVE",
"158 176 CURVE SMOOTH",
"251 379 OFFCURVE",
"417 710 OFFCURVE",
"417 745 CURVE"
);
},
{
closed = 1;
nodes = (
"438 717 OFFCURVE",
"427 701 OFFCURVE",
"427 667 CURVE SMOOTH",
"427 621 OFFCURVE",
"419 431 OFFCURVE",
"424 358 CURVE SMOOTH",
"434 212 OFFCURVE",
"440 166 OFFCURVE",
"486 62 CURVE SMOOTH",
"507 15 OFFCURVE",
"530 -5 OFFCURVE",
"510 -19 CURVE SMOOTH",
"490 -32 OFFCURVE",
"486 -39 OFFCURVE",
"444 -7 CURVE SMOOTH",
"323 86 OFFCURVE",
"200 123 OFFCURVE",
"148 123 CURVE SMOOTH",
"114 123 OFFCURVE",
"118 129 OFFCURVE",
"127 142 CURVE SMOOTH",
"137 156 OFFCURVE",
"142 189 OFFCURVE",
"223 160 CURVE SMOOTH",
"305 131 OFFCURVE",
"459 30 OFFCURVE",
"449 49 CURVE SMOOTH",
"423 97 OFFCURVE",
"423 97 OFFCURVE",
"412 153 CURVE SMOOTH",
"398 224 OFFCURVE",
"392 327 OFFCURVE",
"392 468 CURVE SMOOTH",
"392 661 OFFCURVE",
"380 717 OFFCURVE",
"410 717 CURVE SMOOTH"
);
}
);
width = 600;
}
);
unicode = 0041;
},
{
glyphname = B;
layers = (
{
layerId = "54B20C80-6ADA-4299-B0EF-0FDE4C446783";
name = Regular;
paths = (
{
closed = 1;
nodes = (
"17 680 LINE SMOOTH",
"125 571 OFFCURVE",
"222 192 OFFCURVE",
"183 130 CURVE",
"164 108 OFFCURVE",
"166 105 OFFCURVE",
"126 99 CURVE",
"109 95 OFFCURVE",
"96 102 OFFCURVE",
"108 122 CURVE",
"126 144 OFFCURVE",
"153 142 OFFCURVE",
"153 168 CURVE SMOOTH",
"153 221 OFFCURVE",
"128 380 OFFCURVE",
"61 518 CURVE SMOOTH",
"25 592 OFFCURVE",
"-49 646 OFFCURVE",
"-59 695 CURVE SMOOTH",
"-71 755 OFFCURVE",
"-37 734 OFFCURVE",
"5 692 CURVE SMOOTH"
);
},
{
closed = 1;
nodes = (
"-15 800 OFFCURVE",
"-5 782 OFFCURVE",
"-15 816 CURVE",
"-25 838 OFFCURVE",
"15 853 OFFCURVE",
"43 825 CURVE SMOOTH",
"71 797 OFFCURVE",
"107 781 OFFCURVE",
"147 757 CURVE",
"298 708 OFFCURVE",
"332 708 OFFCURVE",
"405 708 CURVE SMOOTH",
"459 708 OFFCURVE",
"501 720 OFFCURVE",
"491 670 CURVE SMOOTH",
"484 633 OFFCURVE",
"432 596 OFFCURVE",
"371 566 CURVE",
"341 554 OFFCURVE",
"335 530 OFFCURVE",
"353 476 CURVE SMOOTH",
"376 408 OFFCURVE",
"499 270 OFFCURVE",
"561 236 CURVE",
"629 187 OFFCURVE",
"654 171 OFFCURVE",
"617 100 CURVE SMOOTH",
"589 46 OFFCURVE",
"535 -18 OFFCURVE",
"471 -44 CURVE SMOOTH",
"366 -87 OFFCURVE",
"308 -84 OFFCURVE",
"277 -82 CURVE",
"197 -82 OFFCURVE",
"163 -40 OFFCURVE",
"133 12 CURVE SMOOTH",
"103 64 OFFCURVE",
"162 83 OFFCURVE",
"183 38 CURVE SMOOTH",
"201 0 LINE",
"215 -26 OFFCURVE",
"237 -54 OFFCURVE",
"293 -46 CURVE SMOOTH",
"381 -36 OFFCURVE",
"444 -11 OFFCURVE",
"505 46 CURVE SMOOTH",
"564 102 OFFCURVE",
"577 150 OFFCURVE",
"556 170 CURVE SMOOTH",
"363 346 OFFCURVE",
"303 474 OFFCURVE",
"303 528 CURVE SMOOTH",
"303 578 OFFCURVE",
"331 600 OFFCURVE",
"381 628 CURVE SMOOTH",
"473 680 OFFCURVE",
"433 672 OFFCURVE",
"377 668 CURVE SMOOTH",
"321 664 OFFCURVE",
"213 690 OFFCURVE",
"173 700 CURVE SMOOTH",
"132 710 OFFCURVE",
"63 739 OFFCURVE",
"31 760 CURVE"
);
}
);
width = 600;
}
);
unicode = 0042;
},
{
glyphname = C;
layers = (
{
layerId = "54B20C80-6ADA-4299-B0EF-0FDE4C446783";
name = Regular;
paths = (
{
closed = 1;
nodes = (
"120 598 OFFCURVE",
"44 446 OFFCURVE",
"-6 216 CURVE",
"-4 -18 OFFCURVE",
"209 -10 OFFCURVE",
"268 -10 CURVE SMOOTH",
"300 -10 OFFCURVE",
"407 -4 OFFCURVE",
"448 10 CURVE SMOOTH",
"546 44 OFFCURVE",
"552 58 OFFCURVE",
"584 86 CURVE",
"584 86 OFFCURVE",
"602 86 OFFCURVE",
"600 194 CURVE",
"600 194 OFFCURVE",
"548 244 OFFCURVE",
"566 180 CURVE",
"566 180 OFFCURVE",
"553 110 OFFCURVE",
"488 68 CURVE SMOOTH",
"438 36 OFFCURVE",
"345 32 OFFCURVE",
"236 32 CURVE SMOOTH",
"168 32 OFFCURVE",
"14 82 OFFCURVE",
"36 224 CURVE SMOOTH",
"71 449 OFFCURVE",
"234 624 OFFCURVE",
"460 700 CURVE SMOOTH",
"518 720 OFFCURVE",
"511 790 OFFCURVE",
"426 748 CURVE SMOOTH"
);
}
);
width = 600;
}
);
unicode = 0043;
},
{
glyphname = D;
layers = (
{
layerId = "54B20C80-6ADA-4299-B0EF-0FDE4C446783";
name = Regular;
paths = (
{
closed = 1;
nodes = (
"-53 711 LINE",
"-51 676 OFFCURVE",
"-35 810 OFFCURVE",
"-19 717 CURVE SMOOTH",
"-4 628 OFFCURVE",
"74 162 OFFCURVE",
"157 -30 CURVE SMOOTH",
"182 -88 OFFCURVE",
"122 -85 OFFCURVE",
"84 -26 CURVE SMOOTH",
"65 3 LINE",
"31 196 OFFCURVE",
"-13 574 OFFCURVE",
"-42 641 CURVE"
);
},
{
closed = 1;
nodes = (
"24 728 LINE",
"54 727 OFFCURVE",
"42 757 OFFCURVE",
"54 721 CURVE",
"54 152 LINE",
"48 238 LINE"
);
},
{
closed = 1;
nodes = (
"606 337 OFFCURVE",
"672 516 OFFCURVE",
"506 600 CURVE SMOOTH",
"358 675 OFFCURVE",
"140 717 OFFCURVE",
"95 707 CURVE SMOOTH",
"71 701 LINE",
"39 693 LINE SMOOTH",
"8 685 OFFCURVE",
"5 736 OFFCURVE",
"18 745 CURVE SMOOTH",
"30 753 OFFCURVE",
"52 762 OFFCURVE",
"124 762 CURVE",
"155 755 OFFCURVE",
"390 708 OFFCURVE",
"542 626 CURVE SMOOTH",
"666 559 OFFCURVE",
"726 400 OFFCURVE",
"570 186 CURVE SMOOTH",
"474 49 OFFCURVE",
"328 2 OFFCURVE",
"150 -64 CURVE",
"153 -73 LINE",
"101 -32 LINE",
"127 -22 LINE",
"229 9 OFFCURVE",
"431 73 OFFCURVE",
"540 213 CURVE"
);
}
);
width = 600;
}
);
unicode = 0044;
},
{
glyphname = E;
layers = (
{
layerId = "54B20C80-6ADA-4299-B0EF-0FDE4C446783";
name = Regular;
paths = (
{
closed = 1;
nodes = (
"152 309 OFFCURVE",
"117 176 OFFCURVE",
"97 125 CURVE SMOOTH",
"77 74 OFFCURVE",
"30 -6 OFFCURVE",
"110 -24 CURVE SMOOTH",
"190 -42 OFFCURVE",
"233 -36 OFFCURVE",
"324 -36 CURVE SMOOTH",
"415 -36 OFFCURVE",
"431 -28 OFFCURVE",
"469 -20 CURVE SMOOTH",
"507 -12 OFFCURVE",
"522 0 OFFCURVE",
"520 32 CURVE SMOOTH",
"518 64 OFFCURVE",
"500 80 OFFCURVE",
"481 54 CURVE SMOOTH",
"459 24 OFFCURVE",
"403 6 OFFCURVE",
"367 6 CURVE SMOOTH",
"324 6 OFFCURVE",
"275 -2 OFFCURVE",
"203 5 CURVE SMOOTH",
"143 11 OFFCURVE",
"108 40 OFFCURVE",
"128 86 CURVE SMOOTH",
"160 160 OFFCURVE",
"198 337 OFFCURVE",
"198 496 CURVE SMOOTH",
"198 651 OFFCURVE",
"174 694 OFFCURVE",
"137 720 CURVE SMOOTH",
"100 746 OFFCURVE",
"91 709 OFFCURVE",
"114 675 CURVE SMOOTH",
"137 641 OFFCURVE",
"152 594 OFFCURVE",
"152 535 CURVE SMOOTH",
"152 477 OFFCURVE",
"152 478 OFFCURVE",
"150 440 CURVE"
);
},
{
closed = 1;
nodes = (
"194 330 OFFCURVE",
"221 328 OFFCURVE",
"268 341 CURVE SMOOTH",
"289 347 OFFCURVE",
"311 351 OFFCURVE",
"342 371 CURVE SMOOTH",
"379 395 OFFCURVE",
"369 448 OFFCURVE",
"319 415 CURVE SMOOTH",
"298 401 OFFCURVE",
"298 396 OFFCURVE",
"257 384 CURVE SMOOTH",
"204 368 OFFCURVE",
"204 374 OFFCURVE",
"166 374 CURVE SMOOTH",
"128 374 OFFCURVE",
"110 327 OFFCURVE",
"166 327 CURVE SMOOTH",
"171 327 LINE",
"161 327 OFFCURVE",
"171 333 OFFCURVE",
"175 330 CURVE"
);
},
{
closed = 1;
nodes = (
"252 726 OFFCURVE",
"272 727 OFFCURVE",
"310 734 CURVE SMOOTH",
"348 741 OFFCURVE",
"376 761 OFFCURVE",
"396 774 CURVE SMOOTH",
"442 805 OFFCURVE",
"466 751 OFFCURVE",
"426 736 CURVE SMOOTH",
"384 720 OFFCURVE",
"335 700 OFFCURVE",
"271 690 CURVE SMOOTH",
"212 681 OFFCURVE",
"194 679 OFFCURVE",
"177 686 CURVE SMOOTH",
"160 693 OFFCURVE",
"134 726 OFFCURVE",
"184 726 CURVE SMOOTH"
);
}
);
width = 600;
}
);
unicode = 0045;
},
{
glyphname = F;
layers = (
{
layerId = "54B20C80-6ADA-4299-B0EF-0FDE4C446783";
name = Regular;
paths = (
{
closed = 1;
nodes = (
"-51 670 OFFCURVE",
"-21 598 OFFCURVE",
"30 542 CURVE SMOOTH",
"491 38 OFFCURVE",
"423 -127 OFFCURVE",
"411 -185 CURVE",
"400 -223 OFFCURVE",
"364 -243 OFFCURVE",
"364 -243 CURVE SMOOTH",
"364 -243 OFFCURVE",
"278 -265 OFFCURVE",
"281 -226 CURVE SMOOTH",
"284 -197 OFFCURVE",
"309 -208 OFFCURVE",
"324 -208 CURVE SMOOTH",
"337 -208 OFFCURVE",
"357 -199 OFFCURVE",
"357 -162 CURVE SMOOTH",
"357 -71 OFFCURVE",
"381 18 OFFCURVE",
"109 392 CURVE SMOOTH",
"31 499 OFFCURVE",
"10 495 OFFCURVE",
"-33 551 CURVE SMOOTH",
"-76 607 OFFCURVE",
"-57 638 OFFCURVE",
"-42 655 CURVE",
"-42 655 OFFCURVE",
"32 746 OFFCURVE",
"304 739 CURVE SMOOTH",
"346 738 OFFCURVE",
"538 731 OFFCURVE",
"595 718 CURVE SMOOTH",
"652 705 OFFCURVE",
"641 640 OFFCURVE",
"586 665 CURVE SMOOTH",
"531 690 OFFCURVE",
"478 702 OFFCURVE",
"391 704 CURVE SMOOTH",
"304 706 OFFCURVE",
"166 700 OFFCURVE",
"130 695 CURVE SMOOTH"
);
},
{
closed = 1;
nodes = (
"310 294 OFFCURVE",
"388 293 OFFCURVE",
"411 311 CURVE SMOOTH",
"434 329 OFFCURVE",
"491 281 OFFCURVE",
"444 269 CURVE SMOOTH",
"397 257 OFFCURVE",
"305 261 OFFCURVE",
"278 265 CURVE SMOOTH",
"240 271 OFFCURVE",
"245 294 OFFCURVE",
"267 294 CURVE SMOOTH"
);
}
);
width = 600;
}
);
unicode = 0046;
},
{
glyphname = G;
layers = (
{
layerId = "54B20C80-6ADA-4299-B0EF-0FDE4C446783";
name = Regular;
paths = (
{
closed = 1;
nodes = (
"203 769 OFFCURVE",
"-3 581 OFFCURVE",
"2 383 CURVE SMOOTH",
"9 122 OFFCURVE",
"112 66 OFFCURVE",
"202 22 CURVE SMOOTH",
"292 -22 OFFCURVE",
"456 6 OFFCURVE",
"481 12 CURVE SMOOTH",
"506 18 OFFCURVE",
"548 69 OFFCURVE",
"431 259 CURVE SMOOTH",
"404 303 OFFCURVE",
"472 308 OFFCURVE",
"541 311 CURVE SMOOTH",
"610 314 OFFCURVE",
"616 311 OFFCURVE",
"652 301 CURVE SMOOTH",
"688 291 OFFCURVE",
"685 378 OFFCURVE",
"625 368 CURVE SMOOTH",
"565 358 OFFCURVE",
"509 338 OFFCURVE",
"424 344 CURVE SMOOTH",
"358 349 OFFCURVE",
"353 346 OFFCURVE",
"351 325 CURVE SMOOTH",
"349 304 OFFCURVE",
"356 290 OFFCURVE",
"366 294 CURVE SMOOTH",
"392 304 OFFCURVE",
"463 101 OFFCURVE",
"458 67 CURVE SMOOTH",
"453 33 OFFCURVE",
"276 25 OFFCURVE",
"220 49 CURVE SMOOTH",
"151 79 OFFCURVE",
"26 169 OFFCURVE",
"26 371 CURVE SMOOTH",
"26 578 OFFCURVE",
"248 759 OFFCURVE",
"450 691 CURVE SMOOTH",
"466 686 OFFCURVE",
"509 728 OFFCURVE",
"433 728 CURVE"
);
}
);
width = 600;
}
);
unicode = 0047;
},
{
glyphname = H;
layers = (
{
layerId = "54B20C80-6ADA-4299-B0EF-0FDE4C446783";
name = Regular;
paths = (
{
closed = 1;
nodes = (
"380 717 OFFCURVE",
"392 661 OFFCURVE",
"392 468 CURVE SMOOTH",
"392 327 OFFCURVE",
"398 224 OFFCURVE",
"412 153 CURVE SMOOTH",
"423 97 OFFCURVE",
"423 97 OFFCURVE",
"449 49 CURVE SMOOTH",
"459 30 OFFCURVE",
"366 131 OFFCURVE",
"284 160 CURVE SMOOTH",
"203 189 OFFCURVE",
"198 156 OFFCURVE",
"188 142 CURVE SMOOTH",
"179 129 OFFCURVE",
"175 123 OFFCURVE",
"209 123 CURVE SMOOTH",
"261 123 OFFCURVE",
"384 86 OFFCURVE",
"444 -7 CURVE SMOOTH",
"472 -51 OFFCURVE",
"490 -32 OFFCURVE",
"510 -19 CURVE SMOOTH",
"530 -5 OFFCURVE",
"507 15 OFFCURVE",
"486 62 CURVE SMOOTH",
"440 166 OFFCURVE",
"434 212 OFFCURVE",
"424 358 CURVE SMOOTH",
"419 431 OFFCURVE",
"427 621 OFFCURVE",
"427 667 CURVE SMOOTH",
"427 701 OFFCURVE",
"438 717 OFFCURVE",
"410 717 CURVE SMOOTH"
);
},
{
closed = 1;
nodes = (
"89 456 OFFCURVE",
"132 131 OFFCURVE",
"132 48 CURVE SMOOTH",
"132 10 OFFCURVE",
"135 -19 OFFCURVE",
"115 -25 CURVE SMOOTH",
"76 -37 OFFCURVE",
"154 -118 OFFCURVE",
"177 1 CURVE SMOOTH",
"187 54 OFFCURVE",
"181 48 OFFCURVE",
"147 349 CURVE SMOOTH",
"100 763 OFFCURVE",
"103 692 OFFCURVE",
"109 755 CURVE SMOOTH",
"115 818 OFFCURVE",
"61 810 OFFCURVE",
"61 739 CURVE"
);
}
);
width = 600;
}
);
unicode = 0048;
},
{
glyphname = I;
layers = (
{
layerId = "54B20C80-6ADA-4299-B0EF-0FDE4C446783";
name = Regular;
paths = (
{
closed = 1;
nodes = (
"476 699 OFFCURVE",
"411 700 OFFCURVE",
"461 700 CURVE SMOOTH",
"512 700 OFFCURVE",
"584 654 OFFCURVE",
"478 668 CURVE",
"433 679 OFFCURVE",
"499 663 OFFCURVE",
"225 648 CURVE SMOOTH",
"90 638 OFFCURVE",
"90 643 OFFCURVE",
"67 640 CURVE",
"67 640 OFFCURVE",
"34 645 OFFCURVE",
"96 665 CURVE"
);
},
{
closed = 1;
nodes = (
"445 15 OFFCURVE",
"480 13 OFFCURVE",
"495 41 CURVE SMOOTH",
"507 64 OFFCURVE",
"526 67 OFFCURVE",
"526 35 CURVE SMOOTH",
"526 3 OFFCURVE",
"496 -8 OFFCURVE",
"436 -12 CURVE SMOOTH",
"376 -16 OFFCURVE",
"47 -67 OFFCURVE",
"47 30 CURVE SMOOTH",
"47 93 OFFCURVE",
"68 52 OFFCURVE",
"66 37 CURVE SMOOTH",
"59 -10 OFFCURVE",
"176 -7 OFFCURVE",
"257 -3 CURVE"
);
},
{
closed = 1;
nodes = (
"377 337 OFFCURVE",
"355 67 OFFCURVE",
"355 -13 CURVE SMOOTH",
"355 -75 OFFCURVE",
"334 -54 OFFCURVE",
"334 27 CURVE SMOOTH",
"334 114 OFFCURVE",
"317 329 OFFCURVE",
"261 488 CURVE SMOOTH",
"211 629 OFFCURVE",
"194 648 OFFCURVE",
"229 663 CURVE SMOOTH",
"268 680 OFFCURVE",
"250 653 OFFCURVE",
"263 616 CURVE"
);
}
);
width = 600;
}
);
unicode = 0049;
},
{
glyphname = J;
layers = (
{
layerId = "54B20C80-6ADA-4299-B0EF-0FDE4C446783";
name = Regular;
paths = (
{
closed = 1;
nodes = (
"412 684 OFFCURVE",
"255 683 OFFCURVE",
"439 696 CURVE SMOOTH",
"490 700 OFFCURVE",
"520 653 OFFCURVE",
"414 653 CURVE SMOOTH",
"331 653 OFFCURVE",
"296 648 OFFCURVE",
"161 633 CURVE",
"26 623 OFFCURVE",
"26 628 OFFCURVE",
"3 625 CURVE",
"3 625 OFFCURVE",
"-30 650 OFFCURVE",
"32 650 CURVE"
);
},
{
closed = 1;
nodes = (
"255 592 LINE",
"352 366 OFFCURVE",
"429 245 OFFCURVE",
"561 132 CURVE SMOOTH",
"674 36 OFFCURVE",
"643 -71 OFFCURVE",
"571 -95 CURVE SMOOTH",
"455 -134 OFFCURVE",
"195 -248 OFFCURVE",
"106 -68 CURVE SMOOTH",
"67 11 OFFCURVE",
"127 139 OFFCURVE",
"127 15 CURVE SMOOTH",
"127 -12 OFFCURVE",
"142 -53 OFFCURVE",
"158 -74 CURVE SMOOTH",
"251 -197 OFFCURVE",
"488 -99 OFFCURVE",
"542 -54 CURVE SMOOTH",
"561 -38 OFFCURVE",
"630 1 OFFCURVE",
"511 118 CURVE SMOOTH",
"382 245 OFFCURVE",
"325 337 OFFCURVE",
"255 492 CURVE SMOOTH",
"182 654 OFFCURVE",
"187 655 OFFCURVE",
"187 647 CURVE",
"120 685 OFFCURVE",
"212 736 OFFCURVE",
"234 662 CURVE SMOOTH"
);
}
);
width = 600;
}
);
unicode = 004A;
},
{
glyphname = K;
layers = (
{
layerId = "54B20C80-6ADA-4299-B0EF-0FDE4C446783";
name = Regular;
paths = (
{
closed = 1;
nodes = (
"66 37 LINE",
"87 40 OFFCURVE",
"126 -71 OFFCURVE",
"128 45 CURVE SMOOTH",
"130 161 OFFCURVE",
"129 193 OFFCURVE",
"139 203 CURVE SMOOTH",
"149 213 OFFCURVE",
"123 227 OFFCURVE",
"112 159 CURVE",
"112 112 LINE",
"114 286 OFFCURVE",
"116 618 OFFCURVE",
"118 655 CURVE SMOOTH",
"120 692 OFFCURVE",
"48 704 OFFCURVE",
"50 669 CURVE SMOOTH",
"52 634 OFFCURVE",
"66 529 OFFCURVE",
"66 502 CURVE SMOOTH"
);
},
{
closed = 1;
nodes = (
"56 387 OFFCURVE",
"68 312 OFFCURVE",
"136 339 CURVE SMOOTH",
"204 366 OFFCURVE",
"179 358 OFFCURVE",
"266 389 CURVE SMOOTH",
"353 420 OFFCURVE",
"432 488 OFFCURVE",
"461 515 CURVE SMOOTH",
"490 542 OFFCURVE",
"455 579 OFFCURVE",
"420 540 CURVE SMOOTH",
"385 501 OFFCURVE",
"241 375 OFFCURVE",
"145 385 CURVE"
);
},
{
closed = 1;
nodes = (
"183 267 OFFCURVE",
"167 243 OFFCURVE",
"188 232 CURVE SMOOTH",
"197 227 OFFCURVE",
"230 208 OFFCURVE",
"269 177 CURVE SMOOTH",
"306 147 OFFCURVE",
"506 80 OFFCURVE",
"536 25 CURVE SMOOTH",
"566 -30 OFFCURVE",
"602 -38 OFFCURVE",
"571 28 CURVE SMOOTH",
"547 78 OFFCURVE",
"516 94 OFFCURVE",
"378 163 CURVE SMOOTH",
"311 196 OFFCURVE",
"299 203 OFFCURVE",
"239 254 CURVE",
"239 254 OFFCURVE",
"251 308 OFFCURVE",
"300 380 CURVE SMOOTH",
"317 405 OFFCURVE",
"325 413 OFFCURVE",
"384 453 CURVE SMOOTH",
"398 463 OFFCURVE",
"323 448 OFFCURVE",
"320 445 CURVE",
"281 409 OFFCURVE",
"227 345 OFFCURVE",
"187 274 CURVE SMOOTH"
);
}
);
width = 600;
}
);
unicode = 004B;
},
{
glyphname = L;
layers = (
{
layerId = "54B20C80-6ADA-4299-B0EF-0FDE4C446783";
name = Regular;
paths = (
{
closed = 1;
nodes = (
"225 473 OFFCURVE",
"221 365 OFFCURVE",
"163 217 CURVE SMOOTH",
"122 112 OFFCURVE",
"113 70 OFFCURVE",
"113 51 CURVE SMOOTH",
"113 30 OFFCURVE",
"154 13 OFFCURVE",
"220 13 CURVE SMOOTH",
"339 13 OFFCURVE",
"404 2 OFFCURVE",
"489 61 CURVE SMOOTH",
"512 77 OFFCURVE",
"556 55 OFFCURVE",
"517 30 CURVE SMOOTH",
"425 -28 OFFCURVE",
"366 -18 OFFCURVE",
"276 -18 CURVE SMOOTH",
"254 -18 OFFCURVE",
"85 -30 OFFCURVE",
"58 23 CURVE SMOOTH",
"46 46 OFFCURVE",
"67 69 OFFCURVE",
"89 120 CURVE SMOOTH",
"140 239 OFFCURVE",
"183 397 OFFCURVE",
"183 539 CURVE SMOOTH",
"183 599 OFFCURVE",
"160 654 OFFCURVE",
"147 700 CURVE SMOOTH",
"140 725 OFFCURVE",
"113 836 OFFCURVE",
"184 753 CURVE SMOOTH",
"232 697 OFFCURVE",
"222 671 OFFCURVE",
"223 597 CURVE SMOOTH"
);
}
);
width = 600;
}
);
unicode = 004C;
},
{
glyphname = M;
layers = (
{
layerId = "54B20C80-6ADA-4299-B0EF-0FDE4C446783";
name = Regular;
paths = (
{
closed = 1;
nodes = (
"24 340 OFFCURVE",
"17 315 OFFCURVE",
"8 182 CURVE SMOOTH",
"-1 49 OFFCURVE",
"65 5 OFFCURVE",
"53 130 CURVE SMOOTH",
"41 255 OFFCURVE",
"50 354 OFFCURVE",
"84 445 CURVE SMOOTH",
"118 536 OFFCURVE",
"103 503 OFFCURVE",
"103 365 CURVE",
"90 269 OFFCURVE",
"271 292 OFFCURVE",
"309 314 CURVE SMOOTH",
"396 365 OFFCURVE",
"415 428 OFFCURVE",
"422 443 CURVE SMOOTH",
"429 458 OFFCURVE",
"432 345 OFFCURVE",
"491 118 CURVE SMOOTH",
"506 60 OFFCURVE",
"528 -2 OFFCURVE",
"528 -27 CURVE SMOOTH",
"528 -86 OFFCURVE",
"613 -36 OFFCURVE",
"588 4 CURVE SMOOTH",
"563 44 OFFCURVE",
"472 223 OFFCURVE",
"467 370 CURVE SMOOTH",
"462 517 OFFCURVE",
"476 597 OFFCURVE",
"397 528 CURVE SMOOTH",
"381 514 OFFCURVE",
"388 501 OFFCURVE",
"388 484 CURVE SMOOTH",
"388 467 OFFCURVE",
"406 416 OFFCURVE",
"319 360 CURVE SMOOTH",
"240 309 OFFCURVE",
"137 328 OFFCURVE",
"137 355 CURVE SMOOTH",
"137 468 OFFCURVE",
"147 498 OFFCURVE",
"147 512 CURVE SMOOTH",
"147 521 OFFCURVE",
"170 573 OFFCURVE",
"105 559 CURVE SMOOTH",
"70 551 OFFCURVE",
"60 465 OFFCURVE",
"103 661 CURVE SMOOTH",
"117 723 OFFCURVE",
"79 736 OFFCURVE",
"59 581 CURVE SMOOTH"
);
}
);
width = 600;
}
);
unicode = 004D;
},
{
glyphname = N;
layers = (
{
layerId = "54B20C80-6ADA-4299-B0EF-0FDE4C446783";
name = Regular;
paths = (
{
closed = 1;
nodes = (
"38 480 LINE",
"40 272 OFFCURVE",
"32 113 OFFCURVE",
"21 48 CURVE SMOOTH",
"10 -17 OFFCURVE",
"47 -99 OFFCURVE",
"80 48 CURVE SMOOTH",
"113 195 OFFCURVE",
"114 321 OFFCURVE",
"111 310 CURVE SMOOTH",
"104 282 OFFCURVE",
"3 301 OFFCURVE",
"280 109 CURVE SMOOTH",
"373 45 OFFCURVE",
"555 -101 OFFCURVE",
"592 85 CURVE SMOOTH",
"632 286 OFFCURVE",
"549 464 OFFCURVE",
"536 500 CURVE SMOOTH",
"496 612 OFFCURVE",
"459 563 OFFCURVE",
"501 540 CURVE SMOOTH",
"531 523 OFFCURVE",
"656 27 OFFCURVE",
"465 50 CURVE SMOOTH",
"274 73 OFFCURVE",
"172 306 OFFCURVE",
"140 371 CURVE SMOOTH",
"128 395 OFFCURVE",
"130 431 OFFCURVE",
"130 458 CURVE SMOOTH",
"130 485 OFFCURVE",
"159 483 OFFCURVE",
"121 519 CURVE SMOOTH",
"96 542 OFFCURVE",
"65 597 OFFCURVE",
"36 582 CURVE SMOOTH",
"-1 563 OFFCURVE",
"14 526 OFFCURVE",
"27 505 CURVE"
);
}
);
width = 600;
}
);
unicode = 004E;
},
{
glyphname = O;
layers = (
{
layerId = "54B20C80-6ADA-4299-B0EF-0FDE4C446783";
name = Regular;
paths = (
{
closed = 1;
nodes = (
"644 224 OFFCURVE",
"617 26 OFFCURVE",
"326 44 CURVE SMOOTH",
"62 59 OFFCURVE",
"4 221 OFFCURVE",
"3 288 CURVE SMOOTH",
"2 328 OFFCURVE",
"24 403 OFFCURVE",
"168 510 CURVE SMOOTH",
"313 618 OFFCURVE",
"400 517 OFFCURVE",
"423 490 CURVE SMOOTH"
);
},
{
closed = 1;
nodes = (
"210 585 LINE",
"133 535 OFFCURVE",
"-22 447 OFFCURVE",
"-22 300 CURVE SMOOTH",
"-22 165 OFFCURVE",
"103 -8 OFFCURVE",
"352 -12 CURVE SMOOTH",
"625 -14 OFFCURVE",
"644 144 OFFCURVE",
"644 169 CURVE SMOOTH",
"644 193 OFFCURVE",
"643 292 OFFCURVE",
"482 476 CURVE SMOOTH",
"395 574 OFFCURVE",
"317 626 OFFCURVE",
"287 625 CURVE SMOOTH",
"258 624 OFFCURVE",
"236 608 OFFCURVE",
"225 598 CURVE SMOOTH"
);
}
);
width = 600;
}
);
unicode = 004F;
},
{
glyphname = P;
layers = (
{
layerId = "54B20C80-6ADA-4299-B0EF-0FDE4C446783";
name = Regular;
paths = (
{
closed = 1;
nodes = (
"50 639 LINE",
"42 477 OFFCURVE",
"89 345 OFFCURVE",
"109 284 CURVE SMOOTH",
"154 134 LINE",
"154 235 OFFCURVE",
"93 304 OFFCURVE",
"146 450 CURVE",
"217 625 OFFCURVE",
"176 648 OFFCURVE",
"237 630 CURVE SMOOTH",
"585 526 OFFCURVE",
"571 518 OFFCURVE",
"506 439 CURVE SMOOTH",
"375 278 OFFCURVE",
"173 348 OFFCURVE",
"147 375 CURVE",
"120 401 OFFCURVE",
"123 343 OFFCURVE",
"168 325 CURVE SMOOTH",
"248 293 OFFCURVE",
"360 282 OFFCURVE",
"452 342 CURVE SMOOTH",
"533 395 OFFCURVE",
"679 519 OFFCURVE",
"500 584 CURVE SMOOTH",
"233 681 OFFCURVE",
"228 711 OFFCURVE",
"170 686 CURVE SMOOTH",
"126 667 OFFCURVE",
"153 660 OFFCURVE",
"143 571 CURVE SMOOTH",
"132 483 OFFCURVE",
"98 377 OFFCURVE",
"83 247 CURVE SMOOTH",
"68 119 OFFCURVE",
"64 85 OFFCURVE",
"99 33 CURVE SMOOTH",
"133 -15 OFFCURVE",
"121 -18 OFFCURVE",
"173 33 CURVE",
"188 60 OFFCURVE",
"219 82 OFFCURVE",
"173 238 CURVE SMOOTH",
"106 467 OFFCURVE",
"68 560 OFFCURVE",
"112 689 CURVE SMOOTH",
"144 783 OFFCURVE",
"47 735 OFFCURVE",
"48 706 CURVE SMOOTH"
);
}
);
width = 600;
}
);
unicode = 0050;
},
{
glyphname = Q;
layers = (
{
layerId = "54B20C80-6ADA-4299-B0EF-0FDE4C446783";
name = Regular;
paths = (
{
closed = 1;
nodes = (
"706 311 OFFCURVE",
"681 31 OFFCURVE",
"333 52 CURVE SMOOTH",
"18 71 OFFCURVE",
"-51 264 OFFCURVE",
"-53 344 CURVE SMOOTH",
"-54 392 OFFCURVE",
"-9 527 OFFCURVE",
"209 661 CURVE SMOOTH",
"287 709 OFFCURVE",
"281 704 OFFCURVE",
"438 559 CURVE SMOOTH"
);
},
{
closed = 1;
nodes = (
"195 699 LINE",
"103 639 OFFCURVE",
"-82 534 OFFCURVE",
"-82 358 CURVE SMOOTH",
"-82 197 OFFCURVE",
"67 -10 OFFCURVE",
"364 -14 CURVE SMOOTH",
"690 -17 OFFCURVE",
"685 218 OFFCURVE",
"685 248 CURVE SMOOTH",
"685 276 OFFCURVE",
"689 311 OFFCURVE",
"508 543 CURVE SMOOTH",
"307 800 OFFCURVE",
"274 692 OFFCURVE",
"334 742 CURVE SMOOTH",
"351 756 OFFCURVE",
"342 775 OFFCURVE",
"259 732 CURVE SMOOTH"
);
},
{
closed = 1;
nodes = (
"514 153 OFFCURVE",
"424 128 OFFCURVE",
"460 95 CURVE SMOOTH",
"496 62 OFFCURVE",
"540 7 OFFCURVE",
"593 -29 CURVE SMOOTH",
"646 -65 OFFCURVE",
"745 -98 OFFCURVE",
"637 -8 CURVE SMOOTH",
"529 82 OFFCURVE",
"547 77 OFFCURVE",
"522 115 CURVE"
);
}
);
width = 600;
}
);
unicode = 0051;
},
{
glyphname = R;
layers = (
{
layerId = "54B20C80-6ADA-4299-B0EF-0FDE4C446783";
name = Regular;
paths = (
{
closed = 1;
nodes = (
"-41 646 OFFCURVE",
"12 679 OFFCURVE",
"18 605 CURVE SMOOTH",
"22 545 OFFCURVE",
"69 128 OFFCURVE",
"144 56 CURVE SMOOTH",
"231 -29 OFFCURVE",
"139 -63 OFFCURVE",
"104 -24 CURVE SMOOTH",
"52 35 OFFCURVE",
"-100 199 OFFCURVE",
"126 637 CURVE SMOOTH",
"226 830 OFFCURVE",
"300 743 OFFCURVE",
"316 732 CURVE SMOOTH",
"647 498 OFFCURVE",
"539 351 OFFCURVE",
"340 166 CURVE",
"392 140 OFFCURVE",
"579 71 OFFCURVE",
"712 71 CURVE SMOOTH",
"868 71 OFFCURVE",
"727 4 OFFCURVE",
"702 11 CURVE",
"636 32 OFFCURVE",
"466 72 OFFCURVE",
"360 113 CURVE",
"230 174 OFFCURVE",
"300 189 OFFCURVE",
"317 201 CURVE SMOOTH",
"607 408 OFFCURVE",
"465 588 OFFCURVE",
"274 700 CURVE SMOOTH",
"178 756 OFFCURVE",
"3 223 OFFCURVE",
"45 150 CURVE SMOOTH",
"103 45 OFFCURVE",
"52 61 OFFCURVE",
"-30 518 CURVE SMOOTH",
"-37 561 OFFCURVE",
"-37 567 OFFCURVE",
"-37 587 CURVE"
);
}
);
width = 600;
}
);
unicode = 0052;
},
{
glyphname = S;
layers = (
{
layerId = "54B20C80-6ADA-4299-B0EF-0FDE4C446783";
name = Regular;
paths = (
{
closed = 1;
nodes = (
"397 688 OFFCURVE",
"408 732 OFFCURVE",
"313 732 CURVE SMOOTH",
"235 732 OFFCURVE",
"182 714 OFFCURVE",
"95 652 CURVE SMOOTH",
"-32 561 OFFCURVE",
"6 414 OFFCURVE",
"236 250 CURVE SMOOTH",
"442 103 LINE",
"473 73 OFFCURVE",
"440 50 OFFCURVE",
"408 38 CURVE SMOOTH",
"376 26 OFFCURVE",
"257 -18 OFFCURVE",
"156 66 CURVE SMOOTH",
"55 150 OFFCURVE",
"103 38 OFFCURVE",
"198 2 CURVE SMOOTH",
"298 -36 OFFCURVE",
"380 -22 OFFCURVE",
"442 10 CURVE SMOOTH",
"525 53 OFFCURVE",
"547 92 OFFCURVE",
"467 132 CURVE SMOOTH",
"386 173 OFFCURVE",
"-93 432 OFFCURVE",
"78 595 CURVE SMOOTH",
"179 691 OFFCURVE",
"302 674 OFFCURVE",
"336 679 CURVE SMOOTH"
);
}
);
width = 600;
}
);
unicode = 0053;
},
{
glyphname = T;
layers = (
{
layerId = "54B20C80-6ADA-4299-B0EF-0FDE4C446783";
name = Regular;
paths = (
{
closed = 1;
nodes = (
"518 708 OFFCURVE",
"319 707 OFFCURVE",
"552 723 CURVE SMOOTH",
"617 729 OFFCURVE",
"655 669 OFFCURVE",
"520 669 CURVE SMOOTH",
"415 669 OFFCURVE",
"371 663 OFFCURVE",
"200 644 CURVE SMOOTH",
"29 631 OFFCURVE",
"29 638 OFFCURVE",
"0 634 CURVE",
"0 634 OFFCURVE",
"-42 665 OFFCURVE",
"36 665 CURVE"
);
},
{
closed = 1;
nodes = (
"332 147 OFFCURVE",
"340 173 OFFCURVE",
"307 385 CURVE SMOOTH",
"271 614 OFFCURVE",
"247 672 OFFCURVE",
"247 662 CURVE",
"272 710 OFFCURVE",
"305 777 OFFCURVE",
"315 681 CURVE SMOOTH",
"332 518 LINE SMOOTH",
"357 233 OFFCURVE",
"378 172 OFFCURVE",
"396 44 CURVE SMOOTH",
"414 -84 OFFCURVE",
"339 -11 OFFCURVE",
"332 27 CURVE"
);
}
);
width = 600;
}
);
unicode = 0054;
},
{
glyphname = U;
layers = (
{
layerId = "54B20C80-6ADA-4299-B0EF-0FDE4C446783";
name = Regular;
paths = (
{
closed = 1;
nodes = (
"22 633 OFFCURVE",
"120 721 OFFCURVE",
"107 599 CURVE SMOOTH",
"94 477 OFFCURVE",
"-63 37 OFFCURVE",
"254 30 CURVE SMOOTH",
"571 23 OFFCURVE",
"559 258 OFFCURVE",
"435 578 CURVE SMOOTH",
"336 833 OFFCURVE",
"383 814 OFFCURVE",
"496 536 CURVE SMOOTH",
"609 258 OFFCURVE",
"638 4 OFFCURVE",
"273 -3 CURVE SMOOTH",
"-92 -10 OFFCURVE",
"34 468 OFFCURVE",
"22 584 CURVE"
);
}
);
width = 600;
}
);
unicode = 0055;
},
{
glyphname = V;
layers = (
{
layerId = "54B20C80-6ADA-4299-B0EF-0FDE4C446783";
name = Regular;
paths = (
{
closed = 1;
nodes = (
"46 574 OFFCURVE",
"-31 700 OFFCURVE",
"2 700 CURVE SMOOTH",
"103 700 OFFCURVE",
"103 419 OFFCURVE",
"121 316 CURVE SMOOTH",
"184 -54 OFFCURVE",
"354 -103 OFFCURVE",
"530 465 CURVE SMOOTH",
"554 542 OFFCURVE",
"590 500 OFFCURVE",
"590 500 CURVE",
"573 473 OFFCURVE",
"565 489 OFFCURVE",
"540 391 CURVE SMOOTH",
"438 -8 OFFCURVE",
"152 -301 OFFCURVE",
"63 442 CURVE SMOOTH"
);
}
);
width = 600;
}
);
unicode = 0056;
},
{
glyphname = W;
layers = (
{
layerId = "54B20C80-6ADA-4299-B0EF-0FDE4C446783";
name = Regular;
paths = (
{
closed = 1;
nodes = (
"56 584 OFFCURVE",
"193 618 OFFCURVE",
"115 522 CURVE SMOOTH",
"37 426 OFFCURVE",
"19 258 OFFCURVE",
"19 170 CURVE SMOOTH",
"19 68 OFFCURVE",
"83 32 OFFCURVE",
"126 18 CURVE SMOOTH",
"169 4 OFFCURVE",
"201 25 OFFCURVE",
"201 87 CURVE SMOOTH",
"201 113 OFFCURVE",
"250 120 OFFCURVE",
"250 104 CURVE SMOOTH",
"250 77 OFFCURVE",
"369 22 OFFCURVE",
"515 17 CURVE SMOOTH",
"662 13 OFFCURVE",
"663 67 OFFCURVE",
"590 208 CURVE SMOOTH",
"373 628 OFFCURVE",
"387 625 OFFCURVE",
"387 697 CURVE SMOOTH",
"387 752 OFFCURVE",
"434 669 OFFCURVE",
"434 658 CURVE SMOOTH",
"434 619 OFFCURVE",
"468 528 OFFCURVE",
"623 241 CURVE SMOOTH",
"738 28 OFFCURVE",
"751 -141 OFFCURVE",
"247 37 CURVE SMOOTH",
"244 38 OFFCURVE",
"245 28 OFFCURVE",
"245 22 CURVE SMOOTH",
"245 -16 OFFCURVE",
"-21 -112 OFFCURVE",
"-21 247 CURVE SMOOTH",
"-21 293 OFFCURVE",
"-9 390 OFFCURVE",
"43 512 CURVE"
);
}
);
width = 600;
}
);
unicode = 0057;
},
{
glyphname = X;
layers = (
{
layerId = "54B20C80-6ADA-4299-B0EF-0FDE4C446783";
name = Regular;
paths = (
{
closed = 1;
nodes = (
"407 528 OFFCURVE",
"254 322 OFFCURVE",
"418 575 CURVE SMOOTH",
"462 647 OFFCURVE",
"551 640 OFFCURVE",
"448 500 CURVE SMOOTH",
"367 392 OFFCURVE",
"339 342 OFFCURVE",
"226 150 CURVE SMOOTH",
"108 -36 OFFCURVE",
"101 -31 OFFCURVE",
"82 -64 CURVE",
"82 -64 OFFCURVE",
"18 -84 OFFCURVE",
"78 -2 CURVE"
);
},
{
closed = 1;
nodes = (
"422 65 OFFCURVE",
"417 102 OFFCURVE",
"247 355 CURVE SMOOTH",
"63 625 OFFCURVE",
"-3 687 OFFCURVE",
"3 674 CURVE",
"7 750 OFFCURVE",
"13 853 OFFCURVE",
"82 736 CURVE SMOOTH",
"203 538 LINE SMOOTH",
"404 189 OFFCURVE",
"469 123 OFFCURVE",
"569 -29 CURVE SMOOTH",
"669 -182 OFFCURVE",
"525 -130 OFFCURVE",
"492 -86 CURVE"
);
}
);
width = 600;
}
);
unicode = 0058;
},
{
glyphname = Y;
layers = (
{
layerId = "54B20C80-6ADA-4299-B0EF-0FDE4C446783";
name = Regular;
paths = (
{
closed = 1;
nodes = (
"121 703 OFFCURVE",
"44 725 OFFCURVE",
"67 667 CURVE SMOOTH",
"90 609 OFFCURVE",
"84 440 OFFCURVE",
"199 440 CURVE SMOOTH",
"282 440 OFFCURVE",
"360 461 OFFCURVE",
"376 478 CURVE SMOOTH",
"392 495 OFFCURVE",
"271 242 OFFCURVE",
"213 -55 CURVE SMOOTH",
"155 -352 OFFCURVE",
"242 40 OFFCURVE",
"407 428 CURVE SMOOTH",
"458 548 OFFCURVE",
"462 646 OFFCURVE",
"483 682 CURVE SMOOTH",
"504 718 OFFCURVE",
"416 733 OFFCURVE",
"418 623 CURVE SMOOTH",
"420 509 OFFCURVE",
"96 335 OFFCURVE",
"121 672 CURVE"
);
}
);
width = 600;
}
);
unicode = 0059;
},
{
glyphname = Z;
layers = (
{
layerId = "54B20C80-6ADA-4299-B0EF-0FDE4C446783";
name = Regular;
paths = (
{
closed = 1;
nodes = (
"71 700 OFFCURVE",
"65 680 OFFCURVE",
"107 655 CURVE SMOOTH",
"149 630 OFFCURVE",
"196 652 OFFCURVE",
"353 664 CURVE SMOOTH",
"510 676 OFFCURVE",
"512 672 OFFCURVE",
"485 651 CURVE SMOOTH",
"458 630 OFFCURVE",
"-142 66 OFFCURVE",
"195 0 CURVE SMOOTH",
"323 -25 OFFCURVE",
"495 3 OFFCURVE",
"567 -12 CURVE SMOOTH",
"616 -22 OFFCURVE",
"662 -65 OFFCURVE",
"647 -36 CURVE SMOOTH",
"549 154 OFFCURVE",
"15 -115 OFFCURVE",
"155 183 CURVE SMOOTH",
"253 391 OFFCURVE",
"557 657 OFFCURVE",
"580 668 CURVE SMOOTH",
"603 679 OFFCURVE",
"642 752 OFFCURVE",
"508 735 CURVE SMOOTH",
"374 718 OFFCURVE",
"326 712 OFFCURVE",
"229 704 CURVE"
);
}
);
width = 600;
}
);
unicode = 005A;
},
{
glyphname = a;
lastChange = "2013-07-16 18:27:26 -0400";
layers = (
{
layerId = "54B20C80-6ADA-4299-B0EF-0FDE4C446783";
name = Regular;
paths = (
{
closed = 1;
nodes = (
"437 258 OFFCURVE",
"396 213 OFFCURVE",
"333 216 CURVE SMOOTH",
"197 223 OFFCURVE",
"114 94 OFFCURVE",
"226 39 CURVE SMOOTH",
"334 -14 OFFCURVE",
"384 82 OFFCURVE",
"384 121 CURVE SMOOTH",
"384 220 OFFCURVE",
"403 239 OFFCURVE",
"426 183 CURVE SMOOTH",
"466 85 OFFCURVE",
"480 59 OFFCURVE",
"498 39 CURVE",
"572 -45 OFFCURVE",
"548 -75 OFFCURVE",
"459 34 CURVE SMOOTH",
"383 127 OFFCURVE",
"420 66 OFFCURVE",
"374 29 CURVE SMOOTH",
"337 -1 OFFCURVE",
"317 -5 OFFCURVE",
"291 -3 CURVE SMOOTH",
"273 -2 OFFCURVE",
"253 -4 OFFCURVE",
"223 10 CURVE SMOOTH",
"60 85 OFFCURVE",
"162 258 OFFCURVE",
"321 258 CURVE SMOOTH",
"358 258 LINE"
);
}
);
width = 600;
}
);
unicode = 0061;
},
{
glyphname = b;
lastChange = "2013-07-17 11:32:35 -0400";
layers = (
{
layerId = "54B20C80-6ADA-4299-B0EF-0FDE4C446783";
name = Regular;
paths = (
{
closed = 1;
nodes = (
"227 457 LINE",
"252 525 OFFCURVE",
"188 503 OFFCURVE",
"181 465 CURVE",
"171 408 OFFCURVE",
"175 224 OFFCURVE",
"161 135 CURVE",
"141 5 OFFCURVE",
"155 38 OFFCURVE",
"173 72 CURVE",
"182 89 OFFCURVE",
"190 133 OFFCURVE",
"212 158 CURVE",
"283 239 OFFCURVE",
"329 227 OFFCURVE",
"378 173 CURVE",
"409 138 OFFCURVE",
"431 128 OFFCURVE",
"427 115 CURVE",
"397 21 OFFCURVE",
"283 7 OFFCURVE",
"241 71 CURVE",
"211 117 OFFCURVE",
"215 85 OFFCURVE",
"222 65 CURVE",
"229 45 OFFCURVE",
"248 -18 OFFCURVE",
"350 -3 CURVE",
"363 -1 OFFCURVE",
"419 25 OFFCURVE",
"449 85 CURVE",
"474 134 OFFCURVE",
"487 115 OFFCURVE",
"390 204 CURVE SMOOTH",
"306 292 OFFCURVE",
"272 254 OFFCURVE",
"193 174 CURVE SMOOTH",
"193 254 OFFCURVE",
"185 321 OFFCURVE",
"203 391 CURVE SMOOTH"
);
}
);
width = 600;
}
);
unicode = 0062;
},
{
glyphname = c;
lastChange = "2013-07-17 11:08:58 -0400";
layers = (
{
layerId = "54B20C80-6ADA-4299-B0EF-0FDE4C446783";
name = Regular;
paths = (
{
closed = 1;
nodes = (
"392 223 OFFCURVE",
"414 313 OFFCURVE",
"317 266 CURVE SMOOTH",
"229 223 OFFCURVE",
"176 143 OFFCURVE",
"147 98 CURVE",
"130 64 OFFCURVE",
"135 20 OFFCURVE",
"194 -17 CURVE SMOOTH",
"252 -54 OFFCURVE",
"337 -55 OFFCURVE",
"392 -30 CURVE SMOOTH",
"450 -6 OFFCURVE",
"440 62 OFFCURVE",
"435 89 CURVE SMOOTH",
"428 147 OFFCURVE",
"414 82 OFFCURVE",
"414 66 CURVE SMOOTH",
"414 24 OFFCURVE",
"375 -12 OFFCURVE",
"305 -6 CURVE SMOOTH",
"210 5 OFFCURVE",
"156 66 OFFCURVE",
"178 98 CURVE SMOOTH",
"251 205 OFFCURVE",
"314 223 OFFCURVE",
"340 223 CURVE SMOOTH"
);
}
);
width = 600;
}
);
unicode = 0063;
},
{
glyphname = d;
lastChange = "2013-07-16 18:48:09 -0400";
layers = (
{
layerId = "54B20C80-6ADA-4299-B0EF-0FDE4C446783";
name = Regular;
paths = (
{
closed = 1;
nodes = (
"340 165 OFFCURVE",
"360 255 OFFCURVE",
"265 208 CURVE SMOOTH",
"210 181 OFFCURVE",
"174 163 OFFCURVE",
"146 118 CURVE",
"128 85 OFFCURVE",
"134 41 OFFCURVE",
"192 5 CURVE SMOOTH",
"250 -31 OFFCURVE",
"334 -33 OFFCURVE",
"389 -8 CURVE SMOOTH",
"411 2 OFFCURVE",
"436 40 OFFCURVE",
"436 44 CURVE SMOOTH",
"436 61 OFFCURVE",
"459 18 OFFCURVE",
"499 -18 CURVE SMOOTH",
"517 -35 OFFCURVE",
"561 -19 OFFCURVE",
"553 -11 CURVE SMOOTH",
"513 28 OFFCURVE",
"460 59 OFFCURVE",
"445 102 CURVE SMOOTH",
"399 229 OFFCURVE",
"408 427 OFFCURVE",
"408 517 CURVE SMOOTH",
"408 540 OFFCURVE",
"371 514 OFFCURVE",
"371 508 CURVE SMOOTH",
"371 401 OFFCURVE",
"395 198 OFFCURVE",
"410 125 CURVE SMOOTH",
"428 36 OFFCURVE",
"350 2 OFFCURVE",
"281 8 CURVE SMOOTH",
"170 18 OFFCURVE",
"152 88 OFFCURVE",
"176 118 CURVE SMOOTH",
"200 148 OFFCURVE",
"261 165 OFFCURVE",
"288 165 CURVE SMOOTH"
);
}
);
width = 600;
}
);
unicode = 0064;
},
{
glyphname = e;
lastChange = "2013-07-17 11:04:38 -0400";
layers = (
{
layerId = "54B20C80-6ADA-4299-B0EF-0FDE4C446783";
name = Regular;
paths = (
{
closed = 1;
nodes = (
"234 127 OFFCURVE",
"85 105 OFFCURVE",
"193 104 CURVE SMOOTH",
"301 103 OFFCURVE",
"380 112 OFFCURVE",
"391 125 CURVE SMOOTH",
"403 137 OFFCURVE",
"404 160 OFFCURVE",
"376 211 CURVE SMOOTH",
"348 264 OFFCURVE",
"303 304 OFFCURVE",
"231 239 CURVE SMOOTH",
"156 172 OFFCURVE",
"103 -3 OFFCURVE",
"282 -25 CURVE SMOOTH",
"492 -52 OFFCURVE",
"482 27 OFFCURVE",
"481 45 CURVE SMOOTH",
"481 67 OFFCURVE",
"467 40 OFFCURVE",
"467 36 CURVE SMOOTH",
"467 19 OFFCURVE",
"441 -10 OFFCURVE",
"336 -4 CURVE",
"262 -4 OFFCURVE",
"101 31 OFFCURVE",
"246 227 CURVE SMOOTH",
"285 281 OFFCURVE",
"339 241 OFFCURVE",
"354 194 CURVE SMOOTH",
"359 178 OFFCURVE",
"383 134 OFFCURVE",
"298 134 CURVE"
);
}
);
width = 600;
}
);
unicode = 0065;
},
{
glyphname = f;
lastChange = "2013-07-17 11:44:41 -0400";
layers = (
{
layerId = "54B20C80-6ADA-4299-B0EF-0FDE4C446783";
name = Regular;
paths = (
{
closed = 1;
nodes = (
"688 465 OFFCURVE",
"712 465 CURVE SMOOTH",
"724 465 OFFCURVE",
"741 500 OFFCURVE",
"692 579 CURVE SMOOTH",
"583 755 OFFCURVE",
"127 650 OFFCURVE",
"240 213 CURVE",
"240 213 LINE",
"294 87 OFFCURVE",
"331 19 OFFCURVE",
"351 -20 CURVE SMOOTH",
"374 -65 OFFCURVE",
"320 -49 OFFCURVE",
"310 -28 CURVE SMOOTH",
"291 12 OFFCURVE",
"267 52 OFFCURVE",
"245 103 CURVE SMOOTH",
"102 431 OFFCURVE",
"261 733 OFFCURVE",
"590 682 CURVE SMOOTH",
"692 660 OFFCURVE",
"736 575 OFFCURVE",
"763 499 CURVE SMOOTH",
"787 432 OFFCURVE",
"733 399 OFFCURVE",
"725 395 CURVE SMOOTH",
"632 345 OFFCURVE"
);
},
{
closed = 1;
nodes = (
"373 229 OFFCURVE",
"441 183 OFFCURVE",
"347 171 CURVE SMOOTH",
"253 159 OFFCURVE",
"280 157 OFFCURVE",
"207 159 CURVE SMOOTH",
"134 161 OFFCURVE",
"132 204 OFFCURVE",
"163 192 CURVE SMOOTH",
"194 180 OFFCURVE",
"313 203 OFFCURVE",
"329 210 CURVE"
);
}
);
width = 600;
}
);
unicode = 0066;
},
{
glyphname = g;
lastChange = "2013-07-16 19:19:23 -0400";
layers = (
{
layerId = "54B20C80-6ADA-4299-B0EF-0FDE4C446783";
name = Regular;
paths = (
{
closed = 1;
nodes = (
"406 173 OFFCURVE",
"438 211 OFFCURVE",
"340 202 CURVE SMOOTH",
"288 197 OFFCURVE",
"174 144 OFFCURVE",
"146 99 CURVE",
"128 66 OFFCURVE",
"134 41 OFFCURVE",
"192 5 CURVE SMOOTH",
"250 -31 OFFCURVE",
"334 -33 OFFCURVE",
"389 -8 CURVE SMOOTH",
"411 2 OFFCURVE",
"425 -163 OFFCURVE",
"484 -256 CURVE SMOOTH",
"485 -257 OFFCURVE",
"483 -256 OFFCURVE",
"479 -257 CURVE SMOOTH",
"376 -271 OFFCURVE",
"188 -307 OFFCURVE",
"136 -372 CURVE SMOOTH",
"51 -479 OFFCURVE",
"186 -658 OFFCURVE",
"359 -658 CURVE SMOOTH",
"801 -658 OFFCURVE",
"599 -381 OFFCURVE",
"524 -282 CURVE SMOOTH",
"521 -278 OFFCURVE",
"616 -261 OFFCURVE",
"649 -248 CURVE SMOOTH",
"752 -207 OFFCURVE",
"662 -234 OFFCURVE",
"622 -237 CURVE SMOOTH",
"591 -239 OFFCURVE",
"502 -252 OFFCURVE",
"501 -250 CURVE SMOOTH",
"412 -84 OFFCURVE",
"417 -1 OFFCURVE",
"428 10 CURVE SMOOTH",
"479 60 OFFCURVE",
"486 81 OFFCURVE",
"462 123 CURVE SMOOTH",
"440 161 OFFCURVE",
"435 154 OFFCURVE",
"410 125 CURVE SMOOTH",
"385 96 OFFCURVE",
"395 30 OFFCURVE",
"395 16 CURVE SMOOTH",
"395 3 OFFCURVE",
"332 -3 OFFCURVE",
"300 0 CURVE SMOOTH",
"189 10 OFFCURVE",
"152 69 OFFCURVE",
"176 99 CURVE SMOOTH",
"200 129 OFFCURVE",
"289 173 OFFCURVE",
"354 173 CURVE SMOOTH"
);
},
{
closed = 1;
nodes = (
"431 84 OFFCURVE",
"438 104 OFFCURVE",
"441 93 CURVE SMOOTH",
"444 82 OFFCURVE",
"445 70 OFFCURVE",
"443 66 CURVE SMOOTH",
"426 34 OFFCURVE",
"425 32 OFFCURVE",
"431 81 CURVE SMOOTH"
);
},
{
closed = 1;
nodes = (
"683 -542 OFFCURVE",
"643 -629 OFFCURVE",
"331 -629 CURVE",
"170 -629 OFFCURVE",
"107 -473 OFFCURVE",
"159 -388 CURVE SMOOTH",
"186 -344 OFFCURVE",
"292 -294 OFFCURVE",
"495 -285 CURVE"
);
}
);
width = 600;
}
);
unicode = 0067;
},
{
glyphname = h;
lastChange = "2013-07-16 19:26:44 -0400";
layers = (
{
layerId = "54B20C80-6ADA-4299-B0EF-0FDE4C446783";
name = Regular;
paths = (
{
closed = 1;
nodes = (
"130 630 OFFCURVE",
"55 640 OFFCURVE",
"70 602 CURVE SMOOTH",
"84 563 OFFCURVE",
"88 420 OFFCURVE",
"175 97 CURVE SMOOTH",
"232 -114 OFFCURVE",
"274 -2 OFFCURVE",
"278 17 CURVE SMOOTH",
"289 68 OFFCURVE",
"289 108 OFFCURVE",
"315 71 CURVE SMOOTH",
"398 -47 OFFCURVE",
"460 -15 OFFCURVE",
"507 31 CURVE SMOOTH",
"518 42 OFFCURVE",
"522 53 OFFCURVE",
"474 23 CURVE SMOOTH",
"405 -20 OFFCURVE",
"358 36 OFFCURVE",
"337 106 CURVE",
"324 144 OFFCURVE",
"317 156 OFFCURVE",
"294 135 CURVE SMOOTH",
"278 122 OFFCURVE",
"276 97 OFFCURVE",
"267 65 CURVE SMOOTH",
"248 2 OFFCURVE",
"242 -48 OFFCURVE",
"211 69 CURVE SMOOTH",
"168 230 OFFCURVE",
"138 295 OFFCURVE",
"117 579 CURVE"
);
}
);
width = 600;
}
);
unicode = 0068;
},
{
glyphname = i;
lastChange = "2013-07-17 11:51:29 -0400";
layers = (
{
layerId = "54B20C80-6ADA-4299-B0EF-0FDE4C446783";
name = Regular;
paths = (
{
closed = 1;
nodes = (
"303 231 OFFCURVE",
"254 210 OFFCURVE",
"280 151 CURVE SMOOTH",
"306 92 OFFCURVE",
"302 93 OFFCURVE",
"302 55 CURVE SMOOTH",
"302 -4 OFFCURVE",
"345 -10 OFFCURVE",
"345 49 CURVE SMOOTH",
"345 119 OFFCURVE",
"353 112 OFFCURVE",
"328 185 CURVE SMOOTH"
);
},
{
closed = 1;
nodes = (
"178 351 OFFCURVE",
"203 329 OFFCURVE",
"250 359 CURVE SMOOTH",
"290 384 OFFCURVE",
"269 372 OFFCURVE",
"310 398 CURVE SMOOTH",
"329 410 OFFCURVE",
"368 435 OFFCURVE",
"308 435 CURVE SMOOTH",
"293 435 OFFCURVE",
"212 426 OFFCURVE",
"190 386 CURVE"
);
}
);
width = 600;
}
);
unicode = 0069;
},
{
glyphname = j;
lastChange = "2013-07-17 11:48:50 -0400";
layers = (
{
layerId = "54B20C80-6ADA-4299-B0EF-0FDE4C446783";
name = Regular;
paths = (
{
closed = 1;
nodes = (
"320 237 OFFCURVE",
"261 210 OFFCURVE",
"287 151 CURVE SMOOTH",
"313 92 OFFCURVE",
"335 -16 OFFCURVE",
"405 -177 CURVE SMOOTH",
"491 -375 OFFCURVE",
"617 -521 OFFCURVE",
"257 -490 CURVE SMOOTH",
"151 -481 OFFCURVE",
"-123 -417 OFFCURVE",
"221 0 CURVE SMOOTH",
"221 0 OFFCURVE",
"208 2 OFFCURVE",
"189 -21 CURVE SMOOTH",
"-212 -508 OFFCURVE",
"172 -513 OFFCURVE",
"335 -518 CURVE SMOOTH",
"607 -527 OFFCURVE",
"544 -408 OFFCURVE",
"429 -178 CURVE SMOOTH",
"398 -115 OFFCURVE",
"339 112 OFFCURVE",
"328 185 CURVE SMOOTH"
);
},
{
closed = 1;
nodes = (
"152 384 OFFCURVE",
"157 351 OFFCURVE",
"192 351 CURVE SMOOTH",
"201 351 OFFCURVE",
"208 361 OFFCURVE",
"210 366 CURVE SMOOTH",
"220 390 OFFCURVE",
"252 397 OFFCURVE",
"304 413 CURVE SMOOTH",
"371 434 OFFCURVE",
"282 441 OFFCURVE",
"259 441 CURVE SMOOTH",
"240 441 OFFCURVE",
"196 423 OFFCURVE",
"186 414 CURVE SMOOTH"
);
}
);
width = 600;
}
);
unicode = 006A;
},
{
glyphname = k;
lastChange = "2013-07-16 19:48:07 -0400";
layers = (
{
layerId = "54B20C80-6ADA-4299-B0EF-0FDE4C446783";
name = Regular;
paths = (
{
closed = 1;
nodes = (
"160 632 OFFCURVE",
"188 685 OFFCURVE",
"188 587 CURVE SMOOTH",
"188 153 OFFCURVE",
"205 141 OFFCURVE",
"205 21 CURVE SMOOTH",
"205 -17 OFFCURVE",
"149 -1 OFFCURVE",
"153 27 CURVE SMOOTH",
"170 147 OFFCURVE",
"166 544 OFFCURVE",
"160 597 CURVE"
);
},
{
closed = 1;
nodes = (
"171 159 OFFCURVE",
"144 161 OFFCURVE",
"178 179 CURVE SMOOTH",
"214 196 OFFCURVE",
"312 228 OFFCURVE",
"347 228 CURVE SMOOTH",
"468 228 OFFCURVE",
"409 175 OFFCURVE",
"287 53 CURVE SMOOTH",
"265 31 OFFCURVE",
"467 -23 OFFCURVE",
"477 0 CURVE SMOOTH",
"485 18 OFFCURVE",
"517 33 OFFCURVE",
"501 -6 CURVE SMOOTH",
"473 -75 OFFCURVE",
"269 20 OFFCURVE",
"257 16 CURVE SMOOTH",
"242 11 OFFCURVE",
"235 65 OFFCURVE",
"257 65 CURVE SMOOTH",
"267 65 OFFCURVE",
"388 185 OFFCURVE",
"364 200 CURVE SMOOTH",
"359 203 OFFCURVE",
"314 201 OFFCURVE",
"231 176 CURVE SMOOTH"
);
}
);
width = 600;
}
);
unicode = 006B;
},
{
glyphname = l;
lastChange = "2013-07-16 19:49:42 -0400";
layers = (
{
layerId = "54B20C80-6ADA-4299-B0EF-0FDE4C446783";
name = Regular;
paths = (
{
closed = 1;
nodes = (
"287 632 OFFCURVE",
"315 685 OFFCURVE",
"315 587 CURVE SMOOTH",
"315 191 OFFCURVE",
"306 282 OFFCURVE",
"321 127 CURVE SMOOTH",
"326 76 OFFCURVE",
"344 36 OFFCURVE",
"357 15 CURVE SMOOTH",
"377 -17 OFFCURVE",
"280 -33 OFFCURVE",
"280 27 CURVE SMOOTH",
"280 147 OFFCURVE",
"293 544 OFFCURVE",
"287 597 CURVE"
);
}
);
width = 600;
}
);
unicode = 006C;
},
{
glyphname = m;
lastChange = "2013-07-17 11:34:59 -0400";
layers = (
{
layerId = "54B20C80-6ADA-4299-B0EF-0FDE4C446783";
name = Regular;
paths = (
{
closed = 1;
nodes = (
"56 305 OFFCURVE",
"124 325 OFFCURVE",
"111 260 CURVE SMOOTH",
"86 135 OFFCURVE",
"93 151 OFFCURVE",
"93 113 CURVE SMOOTH",
"93 99 OFFCURVE",
"136 161 OFFCURVE",
"147 210 CURVE SMOOTH",
"157 260 OFFCURVE",
"203 230 OFFCURVE",
"203 200 CURVE SMOOTH",
"203 200 LINE",
"213 147 OFFCURVE",
"212 64 OFFCURVE",
"294 167 CURVE",
"347 226 OFFCURVE",
"351 133 OFFCURVE",
"422 67 CURVE SMOOTH",
"492 2 OFFCURVE",
"629 148 OFFCURVE",
"541 47 CURVE",
"484 -18 OFFCURVE",
"475 -11 OFFCURVE",
"403 58 CURVE SMOOTH",
"324 134 OFFCURVE",
"328 157 OFFCURVE",
"279 107 CURVE SMOOTH",
"253 83 OFFCURVE",
"211 80 OFFCURVE",
"185 135 CURVE SMOOTH",
"168 167 OFFCURVE",
"130 143 OFFCURVE",
"96 40 CURVE SMOOTH",
"67 -49 OFFCURVE",
"3 -111 OFFCURVE",
"49 42 CURVE SMOOTH",
"60 80 OFFCURVE",
"96 157 OFFCURVE",
"66 253 CURVE"
);
}
);
width = 600;
}
);
unicode = 006D;
},
{
glyphname = n;
lastChange = "2013-07-16 20:01:20 -0400";
layers = (
{
layerId = "54B20C80-6ADA-4299-B0EF-0FDE4C446783";
name = Regular;
paths = (
{
closed = 1;
nodes = (
"213 268 OFFCURVE",
"153 280 OFFCURVE",
"153 240 CURVE SMOOTH",
"153 194 OFFCURVE",
"167 126 OFFCURVE",
"168 105 CURVE SMOOTH",
"179 -120 OFFCURVE",
"232 -13 OFFCURVE",
"255 25 CURVE SMOOTH",
"283 71 OFFCURVE",
"283 118 OFFCURVE",
"308 79 CURVE SMOOTH",
"364 -7 OFFCURVE",
"434 26 OFFCURVE",
"495 48 CURVE SMOOTH",
"510 54 OFFCURVE",
"518 62 OFFCURVE",
"462 54 CURVE SMOOTH",
"382 43 OFFCURVE",
"351 44 OFFCURVE",
"330 114 CURVE",
"317 152 OFFCURVE",
"310 164 OFFCURVE",
"287 143 CURVE SMOOTH",
"271 130 OFFCURVE",
"269 105 OFFCURVE",
"260 73 CURVE SMOOTH",
"241 10 OFFCURVE",
"194 -43 OFFCURVE",
"194 77 CURVE SMOOTH",
"194 122 OFFCURVE",
"192 153 OFFCURVE",
"200 217 CURVE"
);
}
);
width = 600;
}
);
unicode = 006E;
},
{
glyphname = o;
lastChange = "2013-07-17 11:06:24 -0400";
layers = (
{
layerId = "54B20C80-6ADA-4299-B0EF-0FDE4C446783";
name = Regular;
paths = (
{
closed = 1;
nodes = (
"222 294 OFFCURVE",
"328 215 CURVE SMOOTH",
"445 128 OFFCURVE",
"404 57 OFFCURVE",
"384 41 CURVE SMOOTH",
"333 1 OFFCURVE",
"260 28 OFFCURVE",
"244 34 CURVE SMOOTH",
"121 85 OFFCURVE",
"172 200 OFFCURVE",
"261 250 CURVE SMOOTH",
"325 286 OFFCURVE",
"277 301 OFFCURVE",
"216 255 CURVE SMOOTH",
"190 236 OFFCURVE",
"123 196 OFFCURVE",
"129 117 CURVE SMOOTH",
"131 70 OFFCURVE",
"189 21 OFFCURVE",
"241 9 CURVE SMOOTH",
"315 -11 OFFCURVE",
"362 -10 OFFCURVE",
"406 25 CURVE",
"597 181 OFFCURVE"
);
}
);
width = 600;
}
);
unicode = 006F;
},
{
glyphname = p;
lastChange = "2013-07-16 20:11:21 -0400";
layers = (
{
layerId = "54B20C80-6ADA-4299-B0EF-0FDE4C446783";
name = Regular;
paths = (
{
closed = 1;
nodes = (
"212 15 OFFCURVE",
"147 23 OFFCURVE",
"240 -15 CURVE SMOOTH",
"297 -38 OFFCURVE",
"405 -9 OFFCURVE",
"431 37 CURVE",
"447 71 OFFCURVE",
"434 92 OFFCURVE",
"381 137 CURVE SMOOTH",
"321 188 OFFCURVE",
"243 189 OFFCURVE",
"190 162 CURVE SMOOTH",
"168 150 OFFCURVE",
"163 131 OFFCURVE",
"163 127 CURVE SMOOTH",
"164 110 OFFCURVE",
"135 177 OFFCURVE",
"118 125 CURVE SMOOTH",
"102 77 OFFCURVE",
"128 97 OFFCURVE",
"139 28 CURVE SMOOTH",
"165 -129 OFFCURVE",
"178 -208 OFFCURVE",
"194 -295 CURVE SMOOTH",
"210 -382 OFFCURVE",
"229 -532 OFFCURVE",
"255 -393 CURVE SMOOTH",
"269 -318 OFFCURVE",
"228 -299 OFFCURVE",
"197 -160 CURVE SMOOTH",
"173 -51 OFFCURVE",
"176 -44 OFFCURVE",
"176 28 CURVE SMOOTH",
"176 119 OFFCURVE",
"229 156 OFFCURVE",
"298 151 CURVE SMOOTH",
"350 147 OFFCURVE",
"431 78 OFFCURVE",
"409 47 CURVE SMOOTH",
"386 16 OFFCURVE",
"290 -8 OFFCURVE",
"263 0 CURVE SMOOTH"
);
}
);
width = 600;
}
);
unicode = 0070;
},
{
glyphname = q;
lastChange = "2013-07-16 20:21:09 -0400";
layers = (
{
layerId = "54B20C80-6ADA-4299-B0EF-0FDE4C446783";
name = Regular;
paths = (
{
closed = 1;
nodes = (
"412 157 OFFCURVE",
"444 195 OFFCURVE",
"346 186 CURVE SMOOTH",
"294 181 OFFCURVE",
"174 144 OFFCURVE",
"146 99 CURVE",
"128 66 OFFCURVE",
"134 41 OFFCURVE",
"192 5 CURVE SMOOTH",
"250 -31 OFFCURVE",
"334 -33 OFFCURVE",
"389 -8 CURVE SMOOTH",
"395 -5 OFFCURVE",
"366 -58 OFFCURVE",
"357 -56 CURVE SMOOTH",
"298 -43 OFFCURVE",
"303 -55 OFFCURVE",
"346 -79 CURVE SMOOTH",
"355 -84 OFFCURVE",
"261 -225 OFFCURVE",
"245 -368 CURVE SMOOTH",
"222 -573 OFFCURVE",
"410 -569 OFFCURVE",
"454 -569 CURVE SMOOTH",
"516 -569 OFFCURVE",
"621 -554 OFFCURVE",
"670 -501 CURVE SMOOTH",
"741 -425 OFFCURVE",
"731 -243 OFFCURVE",
"457 -92 CURVE SMOOTH",
"436 -80 OFFCURVE",
"382 -76 OFFCURVE",
"396 -49 CURVE SMOOTH",
"435 26 OFFCURVE",
"459 104 OFFCURVE",
"446 126 CURVE SMOOTH",
"424 164 OFFCURVE",
"385 170 OFFCURVE",
"394 128 CURVE SMOOTH",
"407 69 OFFCURVE",
"403 41 OFFCURVE",
"395 16 CURVE SMOOTH",
"391 4 OFFCURVE",
"332 -3 OFFCURVE",
"300 0 CURVE SMOOTH",
"189 10 OFFCURVE",
"152 69 OFFCURVE",
"176 99 CURVE SMOOTH",
"200 129 OFFCURVE",
"295 157 OFFCURVE",
"360 157 CURVE SMOOTH"
);
},
{
closed = 1;
nodes = (
"373 -89 OFFCURVE",
"442 -111 OFFCURVE",
"499 -135 CURVE",
"688 -247 OFFCURVE",
"797 -513 OFFCURVE",
"477 -534 CURVE SMOOTH",
"214 -551 OFFCURVE",
"225 -337 OFFCURVE",
"373 -89 CURVE SMOOTH"
);
}
);
width = 600;
}
);
unicode = 0071;
},
{
glyphname = r;
lastChange = "2013-07-17 11:35:29 -0400";
layers = (
{
layerId = "54B20C80-6ADA-4299-B0EF-0FDE4C446783";
name = Regular;
paths = (
{
closed = 1;
nodes = (
"249 15 OFFCURVE",
"265 -11 OFFCURVE",
"294 -24 CURVE SMOOTH",
"294 -24 OFFCURVE",
"347 0 OFFCURVE",
"322 16 CURVE SMOOTH",
"240 69 OFFCURVE",
"213 129 OFFCURVE",
"238 160 CURVE SMOOTH",
"263 191 OFFCURVE",
"495 247 OFFCURVE",
"516 203 CURVE SMOOTH",
"537 159 OFFCURVE",
"547 229 OFFCURVE",
"529 236 CURVE SMOOTH",
"468 260 OFFCURVE",
"159 221 OFFCURVE",
"187 149 CURVE SMOOTH",
"206 100 OFFCURVE",
"156 184 OFFCURVE",
"156 197 CURVE SMOOTH",
"156 238 OFFCURVE",
"133 255 OFFCURVE",
"130 213 CURVE SMOOTH",
"127 171 OFFCURVE",
"137 141 OFFCURVE",
"178 95 CURVE SMOOTH"
);
}
);
width = 600;
}
);
unicode = 0072;
},
{
glyphname = s;
lastChange = "2013-07-17 11:04:59 -0400";
layers = (
{
layerId = "54B20C80-6ADA-4299-B0EF-0FDE4C446783";
name = Regular;
paths = (
{
closed = 1;
nodes = (
"272 181 OFFCURVE",
"191 192 OFFCURVE",
"196 156 CURVE SMOOTH",
"200 120 OFFCURVE",
"238 117 OFFCURVE",
"276 102 CURVE SMOOTH",
"302 93 OFFCURVE",
"372 83 OFFCURVE",
"408 73 CURVE SMOOTH",
"420 69 OFFCURVE",
"423 0 OFFCURVE",
"307 -16 CURVE SMOOTH",
"279 -20 OFFCURVE",
"217 -21 OFFCURVE",
"194 1 CURVE SMOOTH",
"171 23 OFFCURVE",
"123 -17 OFFCURVE",
"194 -28 CURVE SMOOTH",
"313 -47 OFFCURVE",
"425 -34 OFFCURVE",
"464 73 CURVE SMOOTH",
"479 116 OFFCURVE",
"235 107 OFFCURVE",
"245 163 CURVE SMOOTH",
"245 163 OFFCURVE",
"344 195 OFFCURVE",
"366 195 CURVE SMOOTH",
"437 195 OFFCURVE",
"390 254 OFFCURVE",
"352 230 CURVE SMOOTH"
);
}
);
width = 600;
}
);
unicode = 0073;
},
{
glyphname = t;
lastChange = "2013-07-17 11:54:52 -0400";
layers = (
{
layerId = "54B20C80-6ADA-4299-B0EF-0FDE4C446783";
name = Regular;
paths = (
{
closed = 1;
nodes = (
"405 70 OFFCURVE",
"276 343 OFFCURVE",
"314 399 CURVE SMOOTH",
"314 399 OFFCURVE",
"336 436 OFFCURVE",
"336 436 CURVE SMOOTH",
"376 488 OFFCURVE",
"269 462 OFFCURVE",
"267 443 CURVE SMOOTH",
"253 317 OFFCURVE",
"360 133 OFFCURVE",
"305 -47 CURVE SMOOTH",
"291 -95 OFFCURVE",
"299 -95 OFFCURVE",
"309 -81 CURVE SMOOTH"
);
},
{
closed = 1;
nodes = (
"270 128 OFFCURVE",
"247 141 OFFCURVE",
"231 131 CURVE SMOOTH",
"211 119 OFFCURVE",
"236 109 OFFCURVE",
"264 115 CURVE SMOOTH",
"293 121 OFFCURVE",
"429 154 OFFCURVE",
"429 154 CURVE SMOOTH",
"447 167 OFFCURVE",
"490 204 OFFCURVE",
"389 183 CURVE",
"339 163 LINE"
);
},
{
closed = 0;
nodes = (
"177 144 LINE"
);
}
);
width = 600;
}
);
unicode = 0074;
},
{
glyphname = u;
lastChange = "2013-07-16 22:54:52 -0400";
layers = (
{
layerId = "54B20C80-6ADA-4299-B0EF-0FDE4C446783";
name = Regular;
paths = (
{
closed = 1;
nodes = (
"224 216 OFFCURVE",
"179 283 OFFCURVE",
"151 215 CURVE SMOOTH",
"123 147 OFFCURVE",
"105 -2 OFFCURVE",
"296 -16 CURVE SMOOTH",
"487 -30 OFFCURVE",
"489 60 OFFCURVE",
"452 140 CURVE SMOOTH",
"415 220 OFFCURVE",
"365 254 OFFCURVE",
"387 206 CURVE SMOOTH",
"418 140 OFFCURVE",
"503 1 OFFCURVE",
"330 13 CURVE SMOOTH",
"200 22 OFFCURVE",
"122 90 OFFCURVE",
"189 195 CURVE SMOOTH"
);
}
);
width = 600;
}
);
unicode = 0075;
},
{
glyphname = v;
lastChange = "2013-07-16 22:54:21 -0400";
layers = (
{
layerId = "54B20C80-6ADA-4299-B0EF-0FDE4C446783";
name = Regular;
paths = (
{
closed = 1;
nodes = (
"175 235 OFFCURVE",
"98 248 OFFCURVE",
"139 213 CURVE SMOOTH",
"139 213 OFFCURVE",
"172 185 OFFCURVE",
"176 167 CURVE SMOOTH",
"198 68 OFFCURVE",
"329 -117 OFFCURVE",
"389 77 CURVE SMOOTH",
"412 151 OFFCURVE",
"444 161 OFFCURVE",
"407 154 CURVE SMOOTH",
"385 150 OFFCURVE",
"385 134 OFFCURVE",
"368 75 CURVE SMOOTH",
"352 18 OFFCURVE",
"263 -30 OFFCURVE",
"191 181 CURVE"
);
}
);
width = 600;
}
);
unicode = 0076;
},
{
glyphname = w;
lastChange = "2013-07-17 11:08:31 -0400";
layers = (
{
layerId = "54B20C80-6ADA-4299-B0EF-0FDE4C446783";
name = Regular;
paths = (
{
closed = 1;
nodes = (
"105 224 OFFCURVE",
"35 268 OFFCURVE",
"23 168 CURVE SMOOTH",
"18 128 OFFCURVE",
"-9 27 OFFCURVE",
"45 -9 CURVE SMOOTH",
"106 -50 OFFCURVE",
"215 -26 OFFCURVE",
"294 31 CURVE SMOOTH",
"294 31 OFFCURVE",
"305 31 OFFCURVE",
"346 13 CURVE SMOOTH",
"538 -72 OFFCURVE",
"715 144 OFFCURVE",
"455 203 CURVE SMOOTH",
"415 212 OFFCURVE",
"497 179 OFFCURVE",
"515 161 CURVE SMOOTH",
"620 58 OFFCURVE",
"450 20 OFFCURVE",
"377 41 CURVE SMOOTH",
"327 56 OFFCURVE",
"295 86 OFFCURVE",
"291 80 CURVE SMOOTH",
"280 64 LINE",
"261 17 OFFCURVE",
"-24 -118 OFFCURVE",
"73 168 CURVE"
);
}
);
width = 600;
}
);
unicode = 0077;
},
{
glyphname = x;
lastChange = "2013-07-16 23:07:11 -0400";
layers = (
{
layerId = "54B20C80-6ADA-4299-B0EF-0FDE4C446783";
name = Regular;
paths = (
{
closed = 1;
nodes = (
"398 108 OFFCURVE",
"213 215 OFFCURVE",
"196 277 CURVE SMOOTH",
"183 325 OFFCURVE",
"157 263 OFFCURVE",
"165 253 CURVE SMOOTH",
"242 161 OFFCURVE",
"325 115 OFFCURVE",
"420 -36 CURVE SMOOTH",
"446 -76 OFFCURVE",
"451 -70 OFFCURVE",
"446 -54 CURVE SMOOTH"
);
},
{
closed = 1;
nodes = (
"258 65 OFFCURVE",
"183 14 OFFCURVE",
"195 1 CURVE SMOOTH",
"209 -15 OFFCURVE",
"242 -5 OFFCURVE",
"255 19 CURVE SMOOTH",
"269 44 OFFCURVE",
"328 192 OFFCURVE",
"347 222 CURVE SMOOTH",
"359 241 OFFCURVE",
"339 310 OFFCURVE",
"306 219 CURVE SMOOTH",
"276 136 LINE"
);
}
);
width = 600;
}
);
unicode = 0078;
},
{
glyphname = y;
lastChange = "2013-07-16 23:23:19 -0400";
layers = (
{
layerId = "54B20C80-6ADA-4299-B0EF-0FDE4C446783";
name = Regular;
paths = (
{
closed = 1;
nodes = (
"217 150 OFFCURVE",
"201 191 OFFCURVE",
"173 120 CURVE",
"155 87 OFFCURVE",
"161 62 OFFCURVE",
"219 26 CURVE SMOOTH",
"277 -10 OFFCURVE",
"340 -6 OFFCURVE",
"395 19 CURVE SMOOTH",
"395 19 OFFCURVE",
"400 -94 OFFCURVE",
"417 -209 CURVE SMOOTH",
"417 -210 OFFCURVE",
"421 -206 OFFCURVE",
"417 -209 CURVE SMOOTH",
"384 -236 OFFCURVE",
"338 -250 OFFCURVE",
"286 -315 CURVE SMOOTH",
"201 -422 OFFCURVE",
"242 -632 OFFCURVE",
"410 -632 CURVE SMOOTH",
"545 -632 OFFCURVE",
"458 -367 OFFCURVE",
"439 -230 CURVE SMOOTH",
"439 -230 OFFCURVE",
"629 -125 OFFCURVE",
"663 -68 CURVE SMOOTH",
"670 -56 OFFCURVE",
"691 44 OFFCURVE",
"622 -65 CURVE SMOOTH",
"587 -120 OFFCURVE",
"436 -204 OFFCURVE",
"436 -202 CURVE SMOOTH",
"411 -55 OFFCURVE",
"425 21 OFFCURVE",
"428 36 CURVE SMOOTH",
"437 86 OFFCURVE",
"454 107 OFFCURVE",
"454 149 CURVE SMOOTH",
"454 193 OFFCURVE",
"435 180 OFFCURVE",
"410 151 CURVE SMOOTH",
"385 122 OFFCURVE",
"395 56 OFFCURVE",
"395 42 CURVE SMOOTH",
"395 29 OFFCURVE",
"332 24 OFFCURVE",
"300 26 CURVE SMOOTH",
"216 31 OFFCURVE",
"187 85 OFFCURVE",
"203 120 CURVE SMOOTH"
);
},
{
closed = 1;
nodes = (
"462 -513 OFFCURVE",
"462 -591 OFFCURVE",
"408 -591 CURVE",
"291 -591 OFFCURVE",
"235 -447 OFFCURVE",
"287 -362 CURVE SMOOTH",
"314 -318 OFFCURVE",
"371 -262 OFFCURVE",
"420 -237 CURVE"
);
}
);
width = 600;
}
);
unicode = 0079;
},
{
glyphname = z;
lastChange = "2013-07-16 23:24:58 -0400";
layers = (
{
layerId = "54B20C80-6ADA-4299-B0EF-0FDE4C446783";
name = Regular;
paths = (
{
closed = 1;
nodes = (
"132 250 OFFCURVE",
"129 239 OFFCURVE",
"151 226 CURVE SMOOTH",
"174 213 OFFCURVE",
"198 225 OFFCURVE",
"281 231 CURVE SMOOTH",
"364 237 OFFCURVE",
"365 235 OFFCURVE",
"351 224 CURVE SMOOTH",
"337 213 OFFCURVE",
"85 36 OFFCURVE",
"203 13 CURVE SMOOTH",
"273 -1 OFFCURVE",
"349 8 OFFCURVE",
"387 0 CURVE SMOOTH",
"413 -5 OFFCURVE",
"472 -34 OFFCURVE",
"464 -19 CURVE SMOOTH",
"412 82 OFFCURVE",
"163 -15 OFFCURVE",
"220 75 CURVE SMOOTH",
"252 126 OFFCURVE",
"389 227 OFFCURVE",
"401 233 CURVE SMOOTH",
"413 239 OFFCURVE",
"434 277 OFFCURVE",
"363 268 CURVE SMOOTH",
"292 259 OFFCURVE",
"267 256 OFFCURVE",
"216 252 CURVE"
);
}
);
width = 600;
}
);
unicode = 007A;
},
